<svg width="80" height="81" viewBox="0 0 80 81" fill="none" xmlns="http://www.w3.org/2000/svg">
<rect y="0.644043" width="80" height="80" rx="7" fill="#F2F2F2"/>
<mask id="mask0_277_99849" style="mask-type:alpha" maskUnits="userSpaceOnUse" x="22" y="4" width="40" height="5">
<rect x="22" y="4.43018" width="40" height="4.09789" rx="2.04895" fill="#F3B811"/>
</mask>
<g mask="url(#mask0_277_99849)">
<path d="M22 4.43018H36.8V19.7973V26.9686H32.5221C29.4708 26.9686 26.5866 25.5755 24.6896 23.1857L22 19.7973V4.43018Z" fill="#E52021"/>
<rect x="36.7998" y="4.43018" width="10.4" height="22.5384" fill="#F7F7F7"/>
<path d="M47.2002 4.43018H62.0002V19.7973L59.3106 23.1857C57.4136 25.5755 54.5293 26.9686 51.4781 26.9686H47.2002V19.7973V4.43018Z" fill="#268A42"/>
<rect x="22" y="4.43018" width="40" height="4.09789" rx="2.04895" fill="black" fill-opacity="0.05"/>
</g>
<path fill-rule="evenodd" clip-rule="evenodd" d="M36.7999 8.53003H26.3999V23.8971L27.5392 25.9397C27.9971 26.7607 28.561 27.5007 29.2082 28.1466C29.5261 27.969 29.8743 27.8392 30.2443 27.768L31.3639 27.5524C31.529 27.5207 31.684 27.4482 31.8154 27.3412C31.9467 27.2342 32.0504 27.096 32.1175 26.9387L32.5725 25.8717C33.2724 24.2304 35.0766 23.3429 36.7697 23.8073L36.7999 23.8156V8.53003Z" fill="#E52021"/>
<path fill-rule="evenodd" clip-rule="evenodd" d="M47.1998 8.53003H36.7998V23.8157L37.8697 24.1093C38.032 24.1538 38.2024 24.1572 38.3662 24.119C38.5299 24.0808 38.6821 24.0023 38.8093 23.8902L39.6725 23.1306C41.0004 21.9621 43.0032 21.9621 44.3309 23.1306L45.194 23.8902C45.3212 24.0023 45.4734 24.0808 45.6372 24.119C45.801 24.1572 45.9714 24.1538 46.1336 24.1093L47.1998 23.8167V8.53003Z" fill="#F7F7F7"/>
<path fill-rule="evenodd" clip-rule="evenodd" d="M57.6002 8.53003H47.2002V23.8166L47.234 23.8073C48.9269 23.3427 50.7312 24.2304 51.4311 25.8717L51.8861 26.9386C51.9531 27.0959 52.0568 27.2342 52.1881 27.3412C52.3195 27.4481 52.4745 27.5207 52.6396 27.5524L53.7592 27.768C54.1284 27.8391 54.4758 27.9684 54.7931 28.1453C55.4399 27.4998 56.0033 26.7601 56.4609 25.9397L57.6002 23.8971V8.53003Z" fill="#268A42"/>
<path d="M41.7053 7.09717L42.1691 12.1397L44.0009 7.4353L43.0592 12.4075L46.1105 8.42232L43.8396 12.9213L47.8632 9.97825L44.4471 13.6395L49.1171 11.977L44.8325 14.504L49.7705 14.2568L44.9645 15.4448L49.7705 16.6327L44.8325 16.3855L49.1171 18.9125L44.4471 17.25L47.8632 20.9113L43.8396 17.9682L46.1105 22.4672L43.0592 18.4821L44.0009 23.4542L42.1691 18.7498L41.7053 23.7923L41.2414 18.7498L39.4097 23.4542L40.3513 18.4821L37.3001 22.4672L39.5709 17.9682L35.5473 20.9113L38.9634 17.25L34.2935 18.9125L38.578 16.3855L33.6401 16.6327L38.446 15.4448L33.6401 14.2568L38.578 14.504L34.2935 11.977L38.9634 13.6395L35.5473 9.97825L39.5709 12.9213L37.3001 8.42232L40.3513 12.4075L39.4097 7.4353L41.2414 12.1397L41.7053 7.09717Z" fill="#F7B70F"/>
<path fill-rule="evenodd" clip-rule="evenodd" d="M57.31 40.4095C57.2382 40.2767 57.2006 40.1288 57.2006 39.9785C57.2006 39.8282 57.2381 39.6802 57.3099 39.5474L57.7966 38.6468C58.5453 37.2612 58.1384 35.5148 56.8502 34.5846L56.0129 33.9801C55.8894 33.891 55.79 33.7737 55.7235 33.6383C55.6569 33.5029 55.6252 33.3536 55.6311 33.2035L55.6707 32.1851C55.7316 30.6186 54.5916 29.2181 53.0189 28.9276L51.9968 28.7388C51.846 28.711 51.7045 28.6475 51.5846 28.5538C51.4647 28.4601 51.37 28.3391 51.3088 28.2013L50.8935 27.267C50.2545 25.8297 48.6072 25.0523 47.0616 25.4592L46.057 25.7236C45.9089 25.7627 45.7533 25.7656 45.6038 25.7321C45.4542 25.6987 45.3153 25.6299 45.1992 25.5318L44.4112 24.8666C43.199 23.8433 41.3705 23.8433 40.1581 24.8666L39.3701 25.5318C39.2539 25.6299 39.1151 25.6987 38.9655 25.7321C38.816 25.7656 38.6604 25.7626 38.5123 25.7236L37.5077 25.4592C35.962 25.0525 34.3149 25.8297 33.6758 27.267L33.2604 28.2014C33.1992 28.3391 33.1045 28.4602 32.9846 28.5538C32.8647 28.6475 32.7232 28.711 32.5725 28.7388L31.5503 28.9276C29.9777 29.2181 28.8377 30.6186 28.8985 32.1851L28.9381 33.2035C28.944 33.3536 28.9123 33.5029 28.8457 33.6383C28.7792 33.7736 28.6798 33.891 28.5563 33.9801L27.719 34.5847C26.4308 35.5149 26.024 37.2613 26.7726 38.6469L27.2593 39.5475C27.3311 39.6803 27.3686 39.8282 27.3686 39.9785C27.3686 40.1288 27.3311 40.2768 27.2593 40.4095L26.7726 41.3101C26.024 42.6957 26.4308 44.4421 27.719 45.3723L28.5563 45.9768C28.6798 46.066 28.7792 46.1833 28.8457 46.3187C28.9122 46.4541 28.9439 46.6035 28.938 46.7536L28.8984 47.7719C28.8376 49.3385 29.9776 50.739 31.5502 51.0294L32.0862 51.1284L32.0863 51.1282L32.5722 51.218C32.723 51.2458 32.8645 51.3093 32.9845 51.403C33.1044 51.4967 33.1991 51.6178 33.2603 51.7556L33.6756 52.6897C34.3146 54.1271 35.9619 54.9045 37.5075 54.4976L38.5121 54.2332C38.6602 54.1942 38.8158 54.1913 38.9653 54.2247C39.1149 54.2582 39.2538 54.327 39.3699 54.4251L40.1579 55.0902C40.2234 55.1452 40.2911 55.1976 40.3608 55.2473L40.3607 55.2476L40.361 55.2474C40.9295 55.6541 41.6069 55.8579 42.2846 55.8579C42.9519 55.8579 43.6191 55.6607 44.1822 55.2664L44.1821 55.2662C44.2611 55.211 44.3375 55.1523 44.411 55.0902L45.1991 54.4251C45.3152 54.3269 45.4541 54.2582 45.6036 54.2247C45.7532 54.1913 45.9088 54.1942 46.0569 54.2332L47.0614 54.4976C47.338 54.5703 47.6174 54.6052 47.894 54.6052C49.1638 54.6051 50.3686 53.8699 50.8934 52.6898L51.3088 51.7555C51.3699 51.6177 51.4646 51.4967 51.5845 51.403C51.7044 51.3093 51.8459 51.2458 51.9966 51.218L52.4492 51.1344L52.4493 51.1347L52.4493 51.1346L53.019 51.0293C54.5916 50.7389 55.7317 49.3384 55.6708 47.7717L55.6312 46.7535C55.6253 46.6034 55.657 46.4541 55.7235 46.3187C55.7901 46.1833 55.8894 46.066 56.0129 45.9768L56.8502 45.3723C58.1385 44.4421 58.5454 42.6958 57.7966 41.3101L57.31 40.4095Z" fill="#D5D5D5"/>
<ellipse cx="42.2843" cy="40.0637" rx="10.3868" ry="10.1755" fill="white"/>
<path d="M13.3332 74.8579V68.1059C13.3332 67.8712 13.3652 67.7112 13.4292 67.6259C13.5039 67.5406 13.6585 67.4979 13.8932 67.4979H20.5492V68.4099H14.9812V70.5699H20.0692V71.4819H14.9812V73.9459H20.5492V74.8579H13.3332ZM21.7888 71.6419C21.7888 70.7779 21.9061 70.1166 22.1408 69.6579C22.3755 69.1886 22.7168 68.8686 23.1648 68.6979C23.6128 68.5166 24.1515 68.4259 24.7808 68.4259C24.9728 68.4259 25.1915 68.4366 25.4368 68.4579C25.6928 68.4686 25.9435 68.4899 26.1888 68.5219C26.4341 68.5539 26.6528 68.5912 26.8448 68.6339C27.0368 68.6659 27.1701 68.7032 27.2448 68.7459L26.8448 68.9379V66.7779H28.3168L28.3008 71.6419C28.3008 72.3672 28.2475 72.9486 28.1408 73.3859C28.0341 73.8126 27.8581 74.1326 27.6128 74.3459C27.3675 74.5592 27.0261 74.7032 26.5888 74.7779C26.1515 74.8526 25.6075 74.8899 24.9568 74.8899C24.3488 74.8899 23.8368 74.8526 23.4208 74.7779C23.0155 74.6926 22.6901 74.5379 22.4448 74.3139C22.2101 74.0899 22.0395 73.7646 21.9328 73.3379C21.8368 72.9112 21.7888 72.3459 21.7888 71.6419ZM24.9248 74.0739C25.3408 74.0739 25.6768 74.0472 25.9328 73.9939C26.1888 73.9299 26.3808 73.8179 26.5088 73.6579C26.6475 73.4979 26.7381 73.2739 26.7808 72.9859C26.8235 72.6872 26.8448 72.3032 26.8448 71.8339L26.8288 69.3859C26.7221 69.3752 26.5781 69.3646 26.3968 69.3539C26.2155 69.3432 26.0235 69.3379 25.8208 69.3379C25.6181 69.3272 25.4315 69.3219 25.2608 69.3219C24.7808 69.3219 24.3968 69.3859 24.1088 69.5139C23.8208 69.6312 23.6128 69.8606 23.4848 70.2019C23.3568 70.5432 23.2928 71.0339 23.2928 71.6739C23.2928 72.3566 23.3408 72.8686 23.4368 73.2099C23.5435 73.5512 23.7141 73.7806 23.9488 73.8979C24.1941 74.0152 24.5195 74.0739 24.9248 74.0739ZM31.2794 68.4739V72.7459C31.2794 73.2366 31.4128 73.5832 31.6794 73.7859C31.9461 73.9886 32.3621 74.0899 32.9274 74.0899C33.5354 74.0899 33.9674 73.9832 34.2234 73.7699C34.4901 73.5566 34.6234 73.2152 34.6234 72.7459V68.4739C34.6341 68.4739 34.6768 68.4739 34.7514 68.4739C34.8368 68.4739 34.9274 68.4739 35.0234 68.4739C35.1194 68.4739 35.2101 68.4739 35.2954 68.4739C35.3808 68.4739 35.4341 68.4739 35.4554 68.4739C35.6261 68.4739 35.7594 68.4846 35.8554 68.5059C35.9514 68.5166 36.0154 68.5646 36.0474 68.6499C36.0901 68.7246 36.1114 68.8526 36.1114 69.0339V72.5219C36.1114 73.0872 36.0261 73.5512 35.8554 73.9139C35.6848 74.2659 35.3648 74.5272 34.8954 74.6979C34.4368 74.8579 33.7754 74.9379 32.9114 74.9379C32.1008 74.9379 31.4661 74.8686 31.0074 74.7299C30.5594 74.5912 30.2394 74.3566 30.0474 74.0259C29.8661 73.6846 29.7754 73.2206 29.7754 72.6339V69.0339C29.7754 68.8099 29.8128 68.6606 29.8874 68.5859C29.9621 68.5112 30.1114 68.4739 30.3354 68.4739C30.4954 68.4739 30.6501 68.4739 30.7994 68.4739C30.9594 68.4739 31.1194 68.4739 31.2794 68.4739ZM41.1232 74.9539C40.2592 74.9539 39.5605 74.8686 39.0272 74.6979C38.4939 74.5272 38.1099 74.2126 37.8752 73.7539C37.6405 73.2952 37.5232 72.6232 37.5232 71.7379C37.5232 70.8206 37.6405 70.1219 37.8752 69.6419C38.1099 69.1512 38.4939 68.8206 39.0272 68.6499C39.5605 68.4686 40.2592 68.3779 41.1232 68.3779C41.4005 68.3779 41.6619 68.3886 41.9072 68.4099C42.1632 68.4312 42.4565 68.4686 42.7872 68.5219C42.9685 68.5432 43.1125 68.5859 43.2192 68.6499C43.3365 68.7139 43.4219 68.8099 43.4752 68.9379C43.5285 69.0552 43.5552 69.2312 43.5552 69.4659C43.4272 69.4126 43.2405 69.3646 42.9952 69.3219C42.7499 69.2792 42.4885 69.2472 42.2112 69.2259C41.9339 69.2046 41.6885 69.1939 41.4752 69.1939C40.8672 69.1939 40.3819 69.2739 40.0192 69.4339C39.6672 69.5832 39.4165 69.8339 39.2672 70.1859C39.1285 70.5379 39.0592 71.0232 39.0592 71.6419C39.0592 72.2606 39.1285 72.7512 39.2672 73.1139C39.4165 73.4766 39.6672 73.7326 40.0192 73.8819C40.3712 74.0312 40.8565 74.1059 41.4752 74.1059C41.7632 74.1059 42.0405 74.0952 42.3072 74.0739C42.5739 74.0419 42.8139 74.0046 43.0272 73.9619C43.2512 73.9086 43.4272 73.8606 43.5552 73.8179V74.2499C43.5552 74.4419 43.4485 74.5912 43.2352 74.6979C43.0219 74.7939 42.7339 74.8579 42.3712 74.8899C42.0192 74.9326 41.6032 74.9539 41.1232 74.9539ZM47.7998 74.9539C47.1385 74.9539 46.5998 74.9219 46.1838 74.8579C45.7678 74.8046 45.4478 74.7032 45.2238 74.5539C44.9998 74.4046 44.8451 74.2019 44.7598 73.9459C44.6851 73.6899 44.6478 73.3699 44.6478 72.9859C44.6478 72.4419 44.7065 72.0312 44.8238 71.7539C44.9518 71.4659 45.1651 71.2686 45.4638 71.1619C45.7731 71.0552 46.1838 71.0019 46.6958 71.0019C46.9625 71.0019 47.2558 71.0072 47.5758 71.0179C47.9065 71.0286 48.2211 71.0446 48.5198 71.0659C48.8291 71.0766 49.0958 71.0926 49.3198 71.1139C49.5545 71.1352 49.7091 71.1619 49.7838 71.1939C49.7838 70.7459 49.7465 70.3939 49.6718 70.1379C49.5971 69.8819 49.4745 69.6899 49.3038 69.5619C49.1438 69.4339 48.9411 69.3486 48.6958 69.3059C48.4505 69.2632 48.1625 69.2419 47.8318 69.2419C47.4691 69.2419 47.1065 69.2526 46.7438 69.2739C46.3918 69.2952 46.0558 69.3326 45.7358 69.3859C45.4265 69.4392 45.1705 69.5086 44.9678 69.5939V69.2899C44.9678 69.0446 45.0318 68.8686 45.1598 68.7619C45.2985 68.6552 45.4638 68.5859 45.6558 68.5539C45.8691 68.5006 46.1838 68.4579 46.5998 68.4259C47.0158 68.3939 47.4585 68.3832 47.9278 68.3939C48.5251 68.3939 49.0318 68.4259 49.4478 68.4899C49.8745 68.5432 50.2158 68.6606 50.4718 68.8419C50.7385 69.0232 50.9305 69.2952 51.0478 69.6579C51.1758 70.0206 51.2398 70.5059 51.2398 71.1139V74.3779C51.1438 74.5806 50.8185 74.7299 50.2638 74.8259C49.7091 74.9112 48.8878 74.9539 47.7998 74.9539ZM47.7998 74.2819C48.2265 74.2819 48.5731 74.2712 48.8398 74.2499C49.1171 74.2179 49.3305 74.1806 49.4798 74.1379C49.6291 74.0846 49.7305 74.0206 49.7838 73.9459V71.7379C49.6878 71.7059 49.5171 71.6792 49.2718 71.6579C49.0265 71.6259 48.7705 71.5992 48.5038 71.5779C48.2371 71.5566 48.0131 71.5459 47.8318 71.5459C47.4371 71.5459 47.1171 71.5726 46.8718 71.6259C46.6265 71.6792 46.4505 71.8019 46.3438 71.9939C46.2371 72.1859 46.1838 72.4846 46.1838 72.8899C46.1838 73.2206 46.2211 73.4872 46.2958 73.6899C46.3705 73.8926 46.5198 74.0419 46.7438 74.1379C46.9785 74.2339 47.3305 74.2819 47.7998 74.2819ZM54.7602 74.9059C54.3335 74.9059 53.9975 74.8579 53.7522 74.7619C53.5175 74.6659 53.3469 74.4952 53.2402 74.2499C53.1335 74.0046 53.0802 73.6739 53.0802 73.2579V69.2899H52.4402V68.4739H53.0802V67.4179C53.0802 67.2259 53.0962 67.0872 53.1282 67.0019C53.1602 66.9059 53.2135 66.8472 53.2882 66.8259C53.3735 66.7939 53.4962 66.7779 53.6562 66.7779H54.5842C54.5842 66.7992 54.5842 66.8472 54.5842 66.9219C54.5842 66.9859 54.5842 67.0819 54.5842 67.2099V68.4739H56.0882V69.2899H54.5842V73.1139C54.5842 73.5299 54.6269 73.8286 54.7122 74.0099C54.7975 74.1806 55.0002 74.2659 55.3202 74.2659C55.4269 74.2659 55.5442 74.2552 55.6722 74.2339C55.8109 74.2126 55.9069 74.1912 55.9602 74.1699V74.7939C55.8962 74.8046 55.7575 74.8259 55.5442 74.8579C55.3309 74.8899 55.0695 74.9059 54.7602 74.9059ZM60.3687 74.9539C59.718 74.9539 59.1687 74.9112 58.7207 74.8259C58.2834 74.7406 57.9314 74.5806 57.6647 74.3459C57.4087 74.1112 57.2274 73.7859 57.1207 73.3699C57.014 72.9539 56.9607 72.4152 56.9607 71.7539C56.9607 70.9646 57.062 70.3246 57.2647 69.8339C57.4674 69.3432 57.8247 68.9859 58.3367 68.7619C58.8594 68.5272 59.5847 68.4099 60.5127 68.4099C61.238 68.4099 61.814 68.5006 62.2407 68.6819C62.678 68.8526 62.9927 69.1246 63.1847 69.4979C63.3767 69.8712 63.4727 70.3459 63.4727 70.9219V71.9459H58.9767C58.9767 71.7752 59.014 71.6366 59.0887 71.5299C59.1634 71.4232 59.302 71.3699 59.5047 71.3699H62.1287L62.1127 70.9539C62.102 70.3566 61.974 69.9192 61.7287 69.6419C61.494 69.3646 61.0674 69.2259 60.4487 69.2259C59.9367 69.2259 59.5367 69.3059 59.2487 69.4659C58.9607 69.6259 58.758 69.8872 58.6407 70.2499C58.5234 70.6019 58.4647 71.0926 58.4647 71.7219C58.4647 72.3726 58.5287 72.8686 58.6567 73.2099C58.7954 73.5406 59.0194 73.7646 59.3287 73.8819C59.6487 73.9992 60.0914 74.0579 60.6567 74.0579C60.8594 74.0579 61.094 74.0526 61.3607 74.0419C61.638 74.0312 61.9154 74.0152 62.1927 73.9939C62.4807 73.9726 62.7367 73.9459 62.9607 73.9139C63.1847 73.8819 63.334 73.8499 63.4087 73.8179V74.0419C63.4087 74.1592 63.382 74.2766 63.3287 74.3939C63.2754 74.5112 63.1634 74.6072 62.9927 74.6819C62.7687 74.7886 62.438 74.8579 62.0007 74.8899C61.574 74.9326 61.03 74.9539 60.3687 74.9539ZM64.6482 71.6419C64.6482 70.7779 64.7655 70.1166 65.0002 69.6579C65.2349 69.1886 65.5762 68.8686 66.0242 68.6979C66.4722 68.5166 67.0109 68.4259 67.6402 68.4259C67.8322 68.4259 68.0509 68.4366 68.2962 68.4579C68.5522 68.4686 68.8029 68.4899 69.0482 68.5219C69.2935 68.5539 69.5122 68.5912 69.7042 68.6339C69.8962 68.6659 70.0295 68.7032 70.1042 68.7459L69.7042 68.9379V66.7779H71.1762L71.1602 71.6419C71.1602 72.3672 71.1069 72.9486 71.0002 73.3859C70.8935 73.8126 70.7175 74.1326 70.4722 74.3459C70.2269 74.5592 69.8855 74.7032 69.4482 74.7779C69.0109 74.8526 68.4669 74.8899 67.8162 74.8899C67.2082 74.8899 66.6962 74.8526 66.2802 74.7779C65.8749 74.6926 65.5495 74.5379 65.3042 74.3139C65.0695 74.0899 64.8989 73.7646 64.7922 73.3379C64.6962 72.9112 64.6482 72.3459 64.6482 71.6419ZM67.7842 74.0739C68.2002 74.0739 68.5362 74.0472 68.7922 73.9939C69.0482 73.9299 69.2402 73.8179 69.3682 73.6579C69.5069 73.4979 69.5975 73.2739 69.6402 72.9859C69.6829 72.6872 69.7042 72.3032 69.7042 71.8339L69.6882 69.3859C69.5815 69.3752 69.4375 69.3646 69.2562 69.3539C69.0749 69.3432 68.8829 69.3379 68.6802 69.3379C68.4775 69.3272 68.2909 69.3219 68.1202 69.3219C67.6402 69.3219 67.2562 69.3859 66.9682 69.5139C66.6802 69.6312 66.4722 69.8606 66.3442 70.2019C66.2162 70.5432 66.1522 71.0339 66.1522 71.6739C66.1522 72.3566 66.2002 72.8686 66.2962 73.2099C66.4029 73.5512 66.5735 73.7806 66.8082 73.8979C67.0535 74.0152 67.3789 74.0739 67.7842 74.0739Z" fill="#1C274C" fill-opacity="0.6"/>
</svg>
